<svg xmlns="http://www.w3.org/2000/svg" xmlns:xlink="http://www.w3.org/1999/xlink" width="140.456" height="25.1" viewBox="0 0 140.456 25.1">
  <defs>
    <clipPath id="clip-path">
      <rect id="Rectangle_18" data-name="Rectangle 18" width="26.218" height="25.1" fill="#ffca3a"/>
    </clipPath>
  </defs>
  <g id="google-5stars" transform="translate(-10)">
    <g id="Group_43" data-name="Group 43" transform="translate(10 0)">
      <g id="Group_42" data-name="Group 42" clip-path="url(#clip-path)">
        <path id="Path_42" data-name="Path 42" d="M26.217,9.939a4.883,4.883,0,0,1-.493.569q-3.009,2.567-6.033,5.115a.435.435,0,0,0-.176.513c.667,2.617,1.32,5.238,1.976,7.858.166.662-.192,1.168-.791,1.1a1.137,1.137,0,0,1-.442-.181q-3.43-2.138-6.851-4.289a.46.46,0,0,0-.583-.009Q9.419,22.765,6,24.89a1.3,1.3,0,0,1-.438.2.751.751,0,0,1-.86-.952c.435-1.771.881-3.539,1.322-5.308.231-.926.456-1.853.7-2.777a.306.306,0,0,0-.119-.367Q3.48,13.05.369,10.406a.784.784,0,0,1-.321-.918.816.816,0,0,1,.824-.525q2.757-.189,5.514-.387c.842-.059,1.685-.125,2.528-.167A.375.375,0,0,0,9.3,8.127Q10.809,4.355,12.334.589C12.5.167,12.721,0,13.1,0a.754.754,0,0,1,.777.578q1.525,3.78,3.046,7.562a.359.359,0,0,0,.366.266c2.111.138,4.221.289,6.332.436.545.038,1.089.1,1.634.108a.977.977,0,0,1,.959.579Z" transform="translate(0 0)" fill="#ffca3a"/>
      </g>
    </g>
    <g id="Group_44" data-name="Group 44" transform="translate(38.754 0)">
      <g id="Group_42-2" data-name="Group 42" clip-path="url(#clip-path)">
        <path id="Path_42-2" data-name="Path 42" d="M26.217,9.939a4.883,4.883,0,0,1-.493.569q-3.009,2.567-6.033,5.115a.435.435,0,0,0-.176.513c.667,2.617,1.32,5.238,1.976,7.858.166.662-.192,1.168-.791,1.1a1.137,1.137,0,0,1-.442-.181q-3.43-2.138-6.851-4.289a.46.46,0,0,0-.583-.009Q9.419,22.765,6,24.89a1.3,1.3,0,0,1-.438.2.751.751,0,0,1-.86-.952c.435-1.771.881-3.539,1.322-5.308.231-.926.456-1.853.7-2.777a.306.306,0,0,0-.119-.367Q3.48,13.05.369,10.406a.784.784,0,0,1-.321-.918.816.816,0,0,1,.824-.525q2.757-.189,5.514-.387c.842-.059,1.685-.125,2.528-.167A.375.375,0,0,0,9.3,8.127Q10.809,4.355,12.334.589C12.5.167,12.721,0,13.1,0a.754.754,0,0,1,.777.578q1.525,3.78,3.046,7.562a.359.359,0,0,0,.366.266c2.111.138,4.221.289,6.332.436.545.038,1.089.1,1.634.108a.977.977,0,0,1,.959.579Z" transform="translate(0 0)" fill="#ffca3a"/>
      </g>
    </g>
    <g id="Group_45" data-name="Group 45" transform="translate(66.731 0)">
      <g id="Group_42-3" data-name="Group 42" clip-path="url(#clip-path)">
        <path id="Path_42-3" data-name="Path 42" d="M26.217,9.939a4.883,4.883,0,0,1-.493.569q-3.009,2.567-6.033,5.115a.435.435,0,0,0-.176.513c.667,2.617,1.32,5.238,1.976,7.858.166.662-.192,1.168-.791,1.1a1.137,1.137,0,0,1-.442-.181q-3.43-2.138-6.851-4.289a.46.46,0,0,0-.583-.009Q9.419,22.765,6,24.89a1.3,1.3,0,0,1-.438.2.751.751,0,0,1-.86-.952c.435-1.771.881-3.539,1.322-5.308.231-.926.456-1.853.7-2.777a.306.306,0,0,0-.119-.367Q3.48,13.05.369,10.406a.784.784,0,0,1-.321-.918.816.816,0,0,1,.824-.525q2.757-.189,5.514-.387c.842-.059,1.685-.125,2.528-.167A.375.375,0,0,0,9.3,8.127Q10.809,4.355,12.334.589C12.5.167,12.721,0,13.1,0a.754.754,0,0,1,.777.578q1.525,3.78,3.046,7.562a.359.359,0,0,0,.366.266c2.111.138,4.221.289,6.332.436.545.038,1.089.1,1.634.108a.977.977,0,0,1,.959.579Z" transform="translate(0 0)" fill="#ffca3a"/>
      </g>
    </g>
    <g id="Group_46" data-name="Group 46" transform="translate(95.484 0)">
      <g id="Group_42-4" data-name="Group 42" clip-path="url(#clip-path)">
        <path id="Path_42-4" data-name="Path 42" d="M26.217,9.939a4.883,4.883,0,0,1-.493.569q-3.009,2.567-6.033,5.115a.435.435,0,0,0-.176.513c.667,2.617,1.32,5.238,1.976,7.858.166.662-.192,1.168-.791,1.1a1.137,1.137,0,0,1-.442-.181q-3.43-2.138-6.851-4.289a.46.46,0,0,0-.583-.009Q9.419,22.765,6,24.89a1.3,1.3,0,0,1-.438.2.751.751,0,0,1-.86-.952c.435-1.771.881-3.539,1.322-5.308.231-.926.456-1.853.7-2.777a.306.306,0,0,0-.119-.367Q3.48,13.05.369,10.406a.784.784,0,0,1-.321-.918.816.816,0,0,1,.824-.525q2.757-.189,5.514-.387c.842-.059,1.685-.125,2.528-.167A.375.375,0,0,0,9.3,8.127Q10.809,4.355,12.334.589C12.5.167,12.721,0,13.1,0a.754.754,0,0,1,.777.578q1.525,3.78,3.046,7.562a.359.359,0,0,0,.366.266c2.111.138,4.221.289,6.332.436.545.038,1.089.1,1.634.108a.977.977,0,0,1,.959.579Z" transform="translate(0 0)" fill="#ffca3a"/>
      </g>
    </g>
    <g id="Group_47" data-name="Group 47" transform="translate(124.239 0)">
      <g id="Group_42-5" data-name="Group 42" clip-path="url(#clip-path)">
        <path id="Path_42-5" data-name="Path 42" d="M26.217,9.939a4.883,4.883,0,0,1-.493.569q-3.009,2.567-6.033,5.115a.435.435,0,0,0-.176.513c.667,2.617,1.32,5.238,1.976,7.858.166.662-.192,1.168-.791,1.1a1.137,1.137,0,0,1-.442-.181q-3.43-2.138-6.851-4.289a.46.46,0,0,0-.583-.009Q9.419,22.765,6,24.89a1.3,1.3,0,0,1-.438.2.751.751,0,0,1-.86-.952c.435-1.771.881-3.539,1.322-5.308.231-.926.456-1.853.7-2.777a.306.306,0,0,0-.119-.367Q3.48,13.05.369,10.406a.784.784,0,0,1-.321-.918.816.816,0,0,1,.824-.525q2.757-.189,5.514-.387c.842-.059,1.685-.125,2.528-.167A.375.375,0,0,0,9.3,8.127Q10.809,4.355,12.334.589C12.5.167,12.721,0,13.1,0a.754.754,0,0,1,.777.578q1.525,3.78,3.046,7.562a.359.359,0,0,0,.366.266c2.111.138,4.221.289,6.332.436.545.038,1.089.1,1.634.108a.977.977,0,0,1,.959.579Z" transform="translate(0 0)" fill="#ffca3a"/>
      </g>
    </g>
  </g>
</svg>
