<svg id="_5stars" data-name="5stars" xmlns="http://www.w3.org/2000/svg" xmlns:xlink="http://www.w3.org/1999/xlink" width="184.367" height="32.165" viewBox="0 0 184.367 32.165">
  <defs>
    <clipPath id="clip-path">
      <rect id="Rectangle_18" data-name="Rectangle 18" width="33.597" height="32.165" fill="#ffca3a"/>
    </clipPath>
  </defs>
  <g id="Group_43" data-name="Group 43" transform="translate(0 0)">
    <g id="Group_42" data-name="Group 42" clip-path="url(#clip-path)">
      <path id="Path_42" data-name="Path 42" d="M33.6,12.736a6.257,6.257,0,0,1-.632.729q-3.855,3.289-7.731,6.555a.557.557,0,0,0-.225.658c.855,3.354,1.691,6.712,2.532,10.069.213.849-.246,1.5-1.013,1.406a1.457,1.457,0,0,1-.567-.232q-4.4-2.739-8.779-5.5a.59.59,0,0,0-.747-.011q-4.363,2.76-8.749,5.483a1.671,1.671,0,0,1-.561.253.962.962,0,0,1-1.1-1.22c.558-2.269,1.128-4.535,1.694-6.8.3-1.186.584-2.375.893-3.558a.392.392,0,0,0-.153-.47q-4-3.376-7.984-6.764a1,1,0,0,1-.412-1.177,1.045,1.045,0,0,1,1.056-.672q3.534-.243,7.066-.5c1.08-.076,2.159-.16,3.24-.215a.48.48,0,0,0,.492-.36q1.936-4.834,3.891-9.66c.218-.541.5-.753.985-.755a.967.967,0,0,1,1,.741q1.955,4.844,3.9,9.69a.46.46,0,0,0,.47.341c2.705.177,5.41.37,8.114.559.7.049,1.4.125,2.094.138a1.252,1.252,0,0,1,1.229.741Z" transform="translate(0 0)" fill="#ffca3a"/>
    </g>
  </g>
  <g id="Group_44" data-name="Group 44" transform="translate(37.692 0)">
    <g id="Group_42-2" data-name="Group 42" clip-path="url(#clip-path)">
      <path id="Path_42-2" data-name="Path 42" d="M33.6,12.736a6.257,6.257,0,0,1-.632.729q-3.855,3.289-7.731,6.555a.557.557,0,0,0-.225.658c.855,3.354,1.691,6.712,2.532,10.069.213.849-.246,1.5-1.013,1.406a1.457,1.457,0,0,1-.567-.232q-4.4-2.739-8.779-5.5a.59.59,0,0,0-.747-.011q-4.363,2.76-8.749,5.483a1.671,1.671,0,0,1-.561.253.962.962,0,0,1-1.1-1.22c.558-2.269,1.128-4.535,1.694-6.8.3-1.186.584-2.375.893-3.558a.392.392,0,0,0-.153-.47q-4-3.376-7.984-6.764a1,1,0,0,1-.412-1.177,1.045,1.045,0,0,1,1.056-.672q3.534-.243,7.066-.5c1.08-.076,2.159-.16,3.24-.215a.48.48,0,0,0,.492-.36q1.936-4.834,3.891-9.66c.218-.541.5-.753.985-.755a.967.967,0,0,1,1,.741q1.955,4.844,3.9,9.69a.46.46,0,0,0,.47.341c2.705.177,5.41.37,8.114.559.7.049,1.4.125,2.094.138a1.252,1.252,0,0,1,1.229.741Z" transform="translate(0 0)" fill="#ffca3a"/>
    </g>
  </g>
  <g id="Group_45" data-name="Group 45" transform="translate(75.385 0)">
    <g id="Group_42-3" data-name="Group 42" clip-path="url(#clip-path)">
      <path id="Path_42-3" data-name="Path 42" d="M33.6,12.736a6.257,6.257,0,0,1-.632.729q-3.855,3.289-7.731,6.555a.557.557,0,0,0-.225.658c.855,3.354,1.691,6.712,2.532,10.069.213.849-.246,1.5-1.013,1.406a1.457,1.457,0,0,1-.567-.232q-4.4-2.739-8.779-5.5a.59.59,0,0,0-.747-.011q-4.363,2.76-8.749,5.483a1.671,1.671,0,0,1-.561.253.962.962,0,0,1-1.1-1.22c.558-2.269,1.128-4.535,1.694-6.8.3-1.186.584-2.375.893-3.558a.392.392,0,0,0-.153-.47q-4-3.376-7.984-6.764a1,1,0,0,1-.412-1.177,1.045,1.045,0,0,1,1.056-.672q3.534-.243,7.066-.5c1.08-.076,2.159-.16,3.24-.215a.48.48,0,0,0,.492-.36q1.936-4.834,3.891-9.66c.218-.541.5-.753.985-.755a.967.967,0,0,1,1,.741q1.955,4.844,3.9,9.69a.46.46,0,0,0,.47.341c2.705.177,5.41.37,8.114.559.7.049,1.4.125,2.094.138a1.252,1.252,0,0,1,1.229.741Z" transform="translate(0 0)" fill="#ffca3a"/>
    </g>
  </g>
  <g id="Group_46" data-name="Group 46" transform="translate(113.077 0)">
    <g id="Group_42-4" data-name="Group 42" clip-path="url(#clip-path)">
      <path id="Path_42-4" data-name="Path 42" d="M33.6,12.736a6.257,6.257,0,0,1-.632.729q-3.855,3.289-7.731,6.555a.557.557,0,0,0-.225.658c.855,3.354,1.691,6.712,2.532,10.069.213.849-.246,1.5-1.013,1.406a1.457,1.457,0,0,1-.567-.232q-4.4-2.739-8.779-5.5a.59.59,0,0,0-.747-.011q-4.363,2.76-8.749,5.483a1.671,1.671,0,0,1-.561.253.962.962,0,0,1-1.1-1.22c.558-2.269,1.128-4.535,1.694-6.8.3-1.186.584-2.375.893-3.558a.392.392,0,0,0-.153-.47q-4-3.376-7.984-6.764a1,1,0,0,1-.412-1.177,1.045,1.045,0,0,1,1.056-.672q3.534-.243,7.066-.5c1.08-.076,2.159-.16,3.24-.215a.48.48,0,0,0,.492-.36q1.936-4.834,3.891-9.66c.218-.541.5-.753.985-.755a.967.967,0,0,1,1,.741q1.955,4.844,3.9,9.69a.46.46,0,0,0,.47.341c2.705.177,5.41.37,8.114.559.7.049,1.4.125,2.094.138a1.252,1.252,0,0,1,1.229.741Z" transform="translate(0 0)" fill="#ffca3a"/>
    </g>
  </g>
  <g id="Group_47" data-name="Group 47" transform="translate(150.77 0)">
    <g id="Group_42-5" data-name="Group 42" clip-path="url(#clip-path)">
      <path id="Path_42-5" data-name="Path 42" d="M33.6,12.736a6.257,6.257,0,0,1-.632.729q-3.855,3.289-7.731,6.555a.557.557,0,0,0-.225.658c.855,3.354,1.691,6.712,2.532,10.069.213.849-.246,1.5-1.013,1.406a1.457,1.457,0,0,1-.567-.232q-4.4-2.739-8.779-5.5a.59.59,0,0,0-.747-.011q-4.363,2.76-8.749,5.483a1.671,1.671,0,0,1-.561.253.962.962,0,0,1-1.1-1.22c.558-2.269,1.128-4.535,1.694-6.8.3-1.186.584-2.375.893-3.558a.392.392,0,0,0-.153-.47q-4-3.376-7.984-6.764a1,1,0,0,1-.412-1.177,1.045,1.045,0,0,1,1.056-.672q3.534-.243,7.066-.5c1.08-.076,2.159-.16,3.24-.215a.48.48,0,0,0,.492-.36q1.936-4.834,3.891-9.66c.218-.541.5-.753.985-.755a.967.967,0,0,1,1,.741q1.955,4.844,3.9,9.69a.46.46,0,0,0,.47.341c2.705.177,5.41.37,8.114.559.7.049,1.4.125,2.094.138a1.252,1.252,0,0,1,1.229.741Z" transform="translate(0 0)" fill="#ffca3a"/>
    </g>
  </g>
</svg>
