<svg id="cleared-recruitment" xmlns="http://www.w3.org/2000/svg" xmlns:xlink="http://www.w3.org/1999/xlink" width="58.765" height="58.747" viewBox="0 0 58.765 58.747">
  <defs>
    <clipPath id="clip-path">
      <rect id="Rectangle_2411" data-name="Rectangle 2411" width="58.765" height="58.747" fill="#001c71"/>
    </clipPath>
  </defs>
  <g id="Group_7995" data-name="Group 7995" clip-path="url(#clip-path)">
    <path id="Path_26385" data-name="Path 26385" d="M2.083,58.747A2.959,2.959,0,0,1,0,55.537q.046-20.88.018-41.761c0-.928.27-1.355.859-1.357s.864.425.864,1.351q0,20.938,0,41.876c0,1.167.209,1.38,1.354,1.38H40.152c1.072,0,1.3-.227,1.3-1.319q0-4.474,0-8.949V46.1c-.222.067-.394.115-.563.171a14.885,14.885,0,0,1-4.728.78q-9.465,0-18.93,0c-.1,0-.192,0-.287,0a.856.856,0,0,1-.856-.826.844.844,0,0,1,.807-.877c.514-.036,1.032-.014,1.548-.014H28.925c-.45-.283-.782-.479-1.1-.695a5.908,5.908,0,0,1-1.153-.843A3.092,3.092,0,0,0,24,42.866c-2.178.061-4.359.019-6.539.018a4.739,4.739,0,0,1-.516-.01.869.869,0,0,1-.864-.889A.847.847,0,0,1,17,41.162c.994-.017,1.989-.007,2.983-.008H23.96c-.11-.194-.168-.324-.25-.437a14.556,14.556,0,0,1-2.45-5.508c-.084-.4-.258-.475-.617-.47-1.2.017-2.409.011-3.614,0a.859.859,0,0,1-.924-.7.788.788,0,0,1,.484-.938,1.547,1.547,0,0,1,.617-.077c1.2-.006,2.4,0,3.656,0V30.53H19.42c-.784,0-1.568.007-2.352,0-.609-.007-1-.361-.984-.874a.873.873,0,0,1,.966-.84c1.166-.011,2.333,0,3.5,0h.643a15.47,15.47,0,0,1,2.832-6.167h-.7q-2.954,0-5.908,0a3.673,3.673,0,0,1-.629-.028.713.713,0,0,1-.675-.784,1.516,1.516,0,0,1,.558-.824c.159-.13.475-.089.721-.09,2.562-.005,5.125.007,7.687-.017a1.622,1.622,0,0,0,.858-.319c.94-.671,1.853-1.38,2.834-2.119H17.42a3.785,3.785,0,0,1-.572-.016.841.841,0,0,1-.757-.919.819.819,0,0,1,.837-.781c.076,0,.153,0,.229,0H36.2a15.6,15.6,0,0,1,5.2.949V12.4h-.619q-3.614,0-7.228,0a2.584,2.584,0,0,1-2.791-2.787c0-2.6,0-5.2,0-7.891H3.015c-1.035,0-1.274.242-1.274,1.287q0,3.184,0,6.367c0,.153.008.307,0,.459a.846.846,0,0,1-.834.847.824.824,0,0,1-.876-.858C.014,7.338-.01,4.852.04,2.367A2.526,2.526,0,0,1,2.435.007C2.53,0,2.626,0,2.721,0Q17.062,0,31.4.019a1.573,1.573,0,0,1,1,.422q5.2,5.144,10.344,10.343a1.6,1.6,0,0,1,.408,1c.037,2.064.028,4.13.01,6.195a.755.755,0,0,0,.439.761,15,15,0,0,1,7.3,10.025,2.6,2.6,0,0,1,.079.623.761.761,0,0,1-.68.8.776.776,0,0,1-.932-.488,6.2,6.2,0,0,1-.226-.886,13.419,13.419,0,1,0,.324,4.123c.055-.654.418-1.034.944-.987s.827.457.771,1.129a15.1,15.1,0,0,1-2.018,6.451c-.114.2-.227.392-.317.546l2.085,2.079c.548-.372,1.028-.153,1.516.349,1.439,1.481,2.895,2.946,4.38,4.381a5.82,5.82,0,0,1,1.937,3.03v1.262a.585.585,0,0,0-.08.151,4.105,4.105,0,0,1-7.1,1.881c-1.586-1.708-3.287-3.308-4.936-4.957-.608-.608-.642-.784-.351-1.455l-2.1-2.088a1.573,1.573,0,0,1-.29.165c-.638.231-.761.68-.753,1.332.038,3.23.02,6.461.013,9.692a4,4,0,0,1-.1.962,2.733,2.733,0,0,1-1.971,1.89ZM48.259,47.383c.067.078.147.184.24.277,1.485,1.487,2.967,2.979,4.461,4.457a2.35,2.35,0,1,0,3.345-3.3c-1.514-1.539-3.05-3.057-4.579-4.582a1.238,1.238,0,0,0-.188-.136l-3.279,3.283M39.95,10.677,32.493,3.218c0,2.121-.008,4.353.006,6.585a.81.81,0,0,0,.866.868c2.232.013,4.464.006,6.585.006m9.57,32.815L47.8,41.754,45.947,43.6l1.734,1.728,1.839-1.832" transform="translate(0 0)" fill="#001c71"/>
    <path id="Path_26387" data-name="Path 26387" d="M184.427,146.038a11.374,11.374,0,0,1-7.515,10.543A11.2,11.2,0,0,1,164.368,153c-.452-.565-.474-1.066-.062-1.415s.93-.227,1.413.343a9.157,9.157,0,0,0,9.533,3.316,9.052,9.052,0,0,0,7.1-6.958,9.5,9.5,0,1,0-18.525-4.162,9.736,9.736,0,0,0,.171,4.482.939.939,0,0,1-.71,1.391c-.413.087-.713-.2-.845-.612a10.4,10.4,0,0,1-.518-3.955,11.227,11.227,0,0,1,22.21-1.663c.139.748.195,1.513.289,2.27" transform="translate(-137.085 -114.113)" fill="#001c71"/>
    <path id="Path_26388" data-name="Path 26388" d="M201.119,179.932c.9-.847,1.773-1.646,2.617-2.474a2.682,2.682,0,1,1,3.827,3.74q-2.094,2.161-4.2,4.309a2.692,2.692,0,0,1-4.138.054c-.7-.68-1.4-1.356-2.092-2.042a2.676,2.676,0,1,1,3.708-3.85c.112.1.221.209.279.264m.086,4.886c.247-.092.429-.146.6-.229a1.053,1.053,0,0,0,.261-.22q2.14-2.191,4.276-4.388a.971.971,0,0,0-.04-1.573.994.994,0,0,0-1.329.258c-1,1.021-1.993,2.055-3,3.074a.9.9,0,0,1-1.443.029c-.294-.272-.573-.561-.866-.834a.97.97,0,0,0-1.462-.066.956.956,0,0,0,.137,1.417c.718.713,1.439,1.423,2.179,2.112a3.812,3.812,0,0,0,.689.42" transform="translate(-166.141 -149.472)" fill="#001c71"/>
    <path id="Path_26389" data-name="Path 26389" d="M38.51,107.268c0-.592-.014-1.184,0-1.775a1.942,1.942,0,0,1,2.064-2.037q1.746-.019,3.493,0a1.947,1.947,0,0,1,2.081,2.078q.014,1.746,0,3.493a1.947,1.947,0,0,1-2.035,2.067q-1.775.022-3.55,0a1.938,1.938,0,0,1-2.05-1.994c-.021-.61,0-1.221,0-1.832m3.857,2.108c.515,0,1.03-.012,1.544,0,.349.011.529-.088.523-.481-.017-1.086-.015-2.173,0-3.259,0-.351-.139-.472-.475-.469-1.086.01-2.173.011-3.259,0-.351,0-.469.146-.466.481q.015,1.63,0,3.259c0,.341.132.48.476.47.552-.017,1.105,0,1.658,0" transform="translate(-32.602 -87.59)" fill="#001c71"/>
    <path id="Path_26390" data-name="Path 26390" d="M46.1,266.63c0,.592.008,1.184,0,1.775a1.929,1.929,0,0,1-1.954,2.03c-1.24.031-2.482.029-3.721,0a1.9,1.9,0,0,1-1.957-1.965c-.031-1.24-.033-2.482,0-3.721A1.915,1.915,0,0,1,40.5,262.8q1.775-.017,3.55,0a1.946,1.946,0,0,1,2.049,2.053c.008.592,0,1.183,0,1.775m-1.724.018c0-.553-.012-1.106,0-1.658.01-.345-.126-.477-.47-.473q-1.63.017-3.259,0c-.35,0-.473.139-.471.475q.014,1.63,0,3.26c0,.339.127.479.472.476q1.63-.017,3.26,0c.341,0,.48-.132.469-.477-.017-.533,0-1.067,0-1.6" transform="translate(-32.55 -222.511)" fill="#001c71"/>
    <path id="Path_26391" data-name="Path 26391" d="M42.247,190.027c-.612,0-1.224.011-1.836,0a1.868,1.868,0,0,1-1.951-1.843c-.049-1.317-.051-2.64,0-3.957a1.838,1.838,0,0,1,1.922-1.8c1.262-.02,2.524-.023,3.786,0a1.872,1.872,0,0,1,1.9,1.892c.027,1.262.025,2.524,0,3.786a1.9,1.9,0,0,1-1.937,1.923c-.631.016-1.262,0-1.893,0m-.01-1.725c.573,0,1.148.027,1.717-.019a.563.563,0,0,0,.387-.387c.032-1.107.011-2.215.023-3.323,0-.322-.121-.439-.439-.435q-1.661.016-3.323,0c-.325,0-.439.126-.437.439q.012,1.633,0,3.266c0,.339.116.481.469.466.534-.022,1.069-.006,1.6-.006" transform="translate(-32.534 -154.445)" fill="#001c71"/>
  </g>
</svg>
