<svg xmlns="http://www.w3.org/2000/svg" width="133.644" height="37.955" viewBox="0 0 133.644 37.955">
  <g id="clutch-logo" transform="translate(-21 -235.9)">
    <path id="Path_26595" data-name="Path 26595" d="M177,235.9h6.148v37.955H177Z" transform="translate(-121.253)" fill="#17313b"/>
    <path id="Path_26596" data-name="Path 26596" d="M241.839,304.732c0,5.88-4.811,6.415-6.415,6.415-3.742,0-4.277-3.475-4.277-5.346V291.1H225v14.434c0,3.475,1.069,6.682,3.207,8.553a9.675,9.675,0,0,0,7.217,2.673c2.138,0,4.811-.535,6.415-2.138v2.138h6.148V291.1h-6.148Z" transform="translate(-158.561 -42.905)" fill="#17313b"/>
    <path id="Path_26597" data-name="Path 26597" d="M344.892,249.1h-6.148v9.355H334.2v5.88h4.544v19.779h6.148V264.335h4.544v-5.88h-4.544Z" transform="translate(-243.438 -10.26)" fill="#17313b"/>
    <path id="Path_26598" data-name="Path 26598" d="M425.576,307.143a8.439,8.439,0,0,1-5.078,1.871c-4.277,0-7.217-3.207-7.217-7.484a6.875,6.875,0,0,1,7.217-7.217,7.055,7.055,0,0,1,5.078,1.871l.8.8,4.277-4.009-1.069-.8A13.7,13.7,0,0,0,420.5,288.7a13.1,13.1,0,1,0,0,26.194,13.7,13.7,0,0,0,9.088-3.475l1.069-.8-4.277-4.277Z" transform="translate(-300.333 -41.039)" fill="#17313b"/>
    <path id="Path_26599" data-name="Path 26599" d="M543.71,250.334a8.483,8.483,0,0,0-6.682-2.673,8.039,8.039,0,0,0-5.88,2.138V235.9H525v37.955h6.148V259.689c0-5.88,4.009-6.415,5.613-6.415,3.742,0,3.475,3.475,3.475,5.346v14.968h6.148v-14.7C546.383,255.412,545.581,252.2,543.71,250.334Z" transform="translate(-391.739 0)" fill="#17313b"/>
    <circle id="Ellipse_2168" data-name="Ellipse 2168" cx="4.277" cy="4.277" r="4.277" transform="translate(115.62 256.481)" fill="#ef4335"/>
    <path id="Path_26600" data-name="Path 26600" d="M47.194,269.141a12.533,12.533,0,0,1-8.821,3.475c-6.682,0-11.493-5.346-11.493-12.563s4.811-12.563,11.761-12.563a12.578,12.578,0,0,1,8.821,3.742l.8.8,4.009-4.009-.8-.8a18,18,0,0,0-12.83-5.346C28.484,241.61,21,249.629,21,260.053S28.484,278.5,38.374,278.5A17.554,17.554,0,0,0,51.2,273.15l.8-.8L48,268.339Z" transform="translate(0 -4.641)" fill="#17313b"/>
  </g>
</svg>
