<svg xmlns="http://www.w3.org/2000/svg" width="91.608" height="16.796" viewBox="0 0 91.608 16.796">
  <g id="clutch-5stars" transform="translate(-391 -393.135)">
    <g id="_216411_star_icon" data-name="216411_star_icon" transform="translate(391 393.135)">
      <g id="Group_8188" data-name="Group 8188" transform="translate(0 0)">
        <path id="Path_26601" data-name="Path 26601" d="M9.672,9.436l-5.554.616a.531.531,0,0,0-.444.362.522.522,0,0,0,.148.549c1.651,1.507,4.132,3.763,4.132,3.763S7.273,18.007,6.821,20.2a.531.531,0,0,0,.207.533.523.523,0,0,0,.567.03c1.944-1.1,4.856-2.766,4.856-2.766l4.854,2.767a.525.525,0,0,0,.776-.563c-.451-2.191-1.129-5.473-1.129-5.473s2.481-2.256,4.132-3.76a.532.532,0,0,0,.148-.552.526.526,0,0,0-.443-.36c-2.222-.249-5.555-.618-5.555-.618l-2.3-5.092a.533.533,0,0,0-.481-.31.526.526,0,0,0-.478.31C11.052,6.381,9.672,9.436,9.672,9.436Z" transform="translate(-3.649 -4.034)" fill="#ef4335"/>
      </g>
    </g>
    <g id="_216411_star_icon-2" data-name="216411_star_icon" transform="translate(409 393.135)">
      <g id="Group_8188-2" data-name="Group 8188" transform="translate(0 0)">
        <path id="Path_26601-2" data-name="Path 26601" d="M9.672,9.436l-5.554.616a.531.531,0,0,0-.444.362.522.522,0,0,0,.148.549c1.651,1.507,4.132,3.763,4.132,3.763S7.273,18.007,6.821,20.2a.531.531,0,0,0,.207.533.523.523,0,0,0,.567.03c1.944-1.1,4.856-2.766,4.856-2.766l4.854,2.767a.525.525,0,0,0,.776-.563c-.451-2.191-1.129-5.473-1.129-5.473s2.481-2.256,4.132-3.76a.532.532,0,0,0,.148-.552.526.526,0,0,0-.443-.36c-2.222-.249-5.555-.618-5.555-.618l-2.3-5.092a.533.533,0,0,0-.481-.31.526.526,0,0,0-.478.31C11.052,6.381,9.672,9.436,9.672,9.436Z" transform="translate(-3.649 -4.034)" fill="#ef4335"/>
      </g>
    </g>
    <g id="_216411_star_icon-3" data-name="216411_star_icon" transform="translate(428 393.135)">
      <g id="Group_8188-3" data-name="Group 8188" transform="translate(0 0)">
        <path id="Path_26601-3" data-name="Path 26601" d="M9.672,9.436l-5.554.616a.531.531,0,0,0-.444.362.522.522,0,0,0,.148.549c1.651,1.507,4.132,3.763,4.132,3.763S7.273,18.007,6.821,20.2a.531.531,0,0,0,.207.533.523.523,0,0,0,.567.03c1.944-1.1,4.856-2.766,4.856-2.766l4.854,2.767a.525.525,0,0,0,.776-.563c-.451-2.191-1.129-5.473-1.129-5.473s2.481-2.256,4.132-3.76a.532.532,0,0,0,.148-.552.526.526,0,0,0-.443-.36c-2.222-.249-5.555-.618-5.555-.618l-2.3-5.092a.533.533,0,0,0-.481-.31.526.526,0,0,0-.478.31C11.052,6.381,9.672,9.436,9.672,9.436Z" transform="translate(-3.649 -4.034)" fill="#ef4335"/>
      </g>
    </g>
    <g id="_216411_star_icon-4" data-name="216411_star_icon" transform="translate(447 393.135)">
      <g id="Group_8188-4" data-name="Group 8188" transform="translate(0 0)">
        <path id="Path_26601-4" data-name="Path 26601" d="M9.672,9.436l-5.554.616a.531.531,0,0,0-.444.362.522.522,0,0,0,.148.549c1.651,1.507,4.132,3.763,4.132,3.763S7.273,18.007,6.821,20.2a.531.531,0,0,0,.207.533.523.523,0,0,0,.567.03c1.944-1.1,4.856-2.766,4.856-2.766l4.854,2.767a.525.525,0,0,0,.776-.563c-.451-2.191-1.129-5.473-1.129-5.473s2.481-2.256,4.132-3.76a.532.532,0,0,0,.148-.552.526.526,0,0,0-.443-.36c-2.222-.249-5.555-.618-5.555-.618l-2.3-5.092a.533.533,0,0,0-.481-.31.526.526,0,0,0-.478.31C11.052,6.381,9.672,9.436,9.672,9.436Z" transform="translate(-3.649 -4.034)" fill="#ef4335"/>
      </g>
    </g>
    <g id="_216411_star_icon-5" data-name="216411_star_icon" transform="translate(465 393.135)">
      <g id="Group_8188-5" data-name="Group 8188" transform="translate(0 0)">
        <path id="Path_26601-5" data-name="Path 26601" d="M9.672,9.436l-5.554.616a.531.531,0,0,0-.444.362.522.522,0,0,0,.148.549c1.651,1.507,4.132,3.763,4.132,3.763S7.273,18.007,6.821,20.2a.531.531,0,0,0,.207.533.523.523,0,0,0,.567.03c1.944-1.1,4.856-2.766,4.856-2.766l4.854,2.767a.525.525,0,0,0,.776-.563c-.451-2.191-1.129-5.473-1.129-5.473s2.481-2.256,4.132-3.76a.532.532,0,0,0,.148-.552.526.526,0,0,0-.443-.36c-2.222-.249-5.555-.618-5.555-.618l-2.3-5.092a.533.533,0,0,0-.481-.31.526.526,0,0,0-.478.31C11.052,6.381,9.672,9.436,9.672,9.436Z" transform="translate(-3.649 -4.034)" fill="#ef4335"/>
      </g>
    </g>
  </g>
</svg>
