<svg xmlns="http://www.w3.org/2000/svg" xmlns:xlink="http://www.w3.org/1999/xlink" width="66.798" height="66.772" viewBox="0 0 66.798 66.772">
  <defs>
    <clipPath id="clip-path">
      <rect id="Rectangle_2383" data-name="Rectangle 2383" width="66.798" height="66.772" fill="#001c71"/>
    </clipPath>
  </defs>
  <g id="contingent-staffing" transform="translate(-132.596 -30.803)">
    <g id="Group_7967" data-name="Group 7967" transform="translate(132.596 30.803)">
      <g id="Group_7966" data-name="Group 7966" clip-path="url(#clip-path)">
        <path id="Path_26348" data-name="Path 26348" d="M0,52.167V49.428c.109-.614.2-1.232.33-1.841A15.914,15.914,0,0,1,14.173,34.946c.39-.052.517-.2.5-.579-.022-.651-.028-1.3,0-1.954.02-.437-.182-.531-.569-.587A15.626,15.626,0,0,1,1.065,21.612,30.668,30.668,0,0,1,0,17.35V14.611a5.666,5.666,0,0,0,.122-.559A15.97,15.97,0,1,1,18.944,31.68c-.529.1-1.284.018-1.529.334-.28.362-.124,1.075-.129,1.635-.011,1.16-.005,1.173,1.146,1.36A16.016,16.016,0,0,1,26.2,38.527l12.32-12.32c-.063-.08-.171-.215-.278-.352A15.973,15.973,0,0,1,56.909,1.225a2.4,2.4,0,0,1,.8.523,1.226,1.226,0,0,1,.046,1.565,1.311,1.311,0,0,1-1.7.37,13.662,13.662,0,0,0-7.918-.809c-9.173,1.73-13.761,12.754-8.506,20.459a3,3,0,0,0,.309.328,13.036,13.036,0,0,1,6.192-5.467,7.178,7.178,0,0,1-2.5-5.422,7.01,7.01,0,0,1,2.469-5.463,7.159,7.159,0,0,1,9.521.126,6.941,6.941,0,0,1,2.284,4.483A7.185,7.185,0,0,1,55.462,18.2a13.1,13.1,0,0,1,6.224,5.517c.184-.264.326-.447.445-.643a13.217,13.217,0,0,0,1.3-11.448c-.331-1.009-.081-1.715.717-1.988s1.406.133,1.76,1.168A15.962,15.962,0,0,1,48.158,31.73a16.321,16.321,0,0,1-7.722-3.583L28.118,40.41a16.221,16.221,0,0,1,3.75,8.663.665.665,0,0,0,.484.408c.648.049,1.3,0,1.955.028.436.02.6-.122.646-.572A15.968,15.968,0,1,1,55.961,65.887a38.724,38.724,0,0,1-3.79.884H49.432a28.538,28.538,0,0,1-3.358-.741c-6.4-2.213-10.125-6.684-11.125-13.393-.054-.36-.142-.55-.549-.534-.673.026-1.348.026-2.021,0-.406-.016-.5.173-.55.534A15.671,15.671,0,0,1,21.381,65.8a29.4,29.4,0,0,1-4.034.971H14.608a4.238,4.238,0,0,0-.5-.118A15.956,15.956,0,0,1,.654,55.267C.367,54.253.215,53.2,0,52.167M29.345,50.79A13.368,13.368,0,1,0,16,64.163,13.39,13.39,0,0,0,29.345,50.79m32.31,7.7A13.326,13.326,0,0,0,41.08,41.64c-5.027,5.317-4.31,12.882-1.12,16.811a12.982,12.982,0,0,1,6.14-5.421,7.292,7.292,0,0,1-.317-10.617,7.21,7.21,0,0,1,9.62-.365,6.936,6.936,0,0,1,2.483,4.448,7.165,7.165,0,0,1-2.425,6.517,13.074,13.074,0,0,1,6.193,5.473M26.824,23.657A13.319,13.319,0,0,0,6.539,6.531a13.167,13.167,0,0,0-1.41,17.114,13.045,13.045,0,0,1,6.189-5.451,7.175,7.175,0,0,1-2.5-5.369,6.984,6.984,0,0,1,2.333-5.39,7.159,7.159,0,0,1,9.568-.083,6.966,6.966,0,0,1,2.368,4.508,7.173,7.173,0,0,1-2.447,6.336,13.041,13.041,0,0,1,6.186,5.463m23.96-3.783a10.006,10.006,0,0,0-8.818,5.543.487.487,0,0,0,.131.711c4.611,4.256,12.731,4.262,17.4.011.244-.222.326-.385.149-.707a10,10,0,0,0-8.857-5.559m-34.8,9.479a13.516,13.516,0,0,0,8.551-3.1.659.659,0,0,0,.19-1.018c-1.955-3.346-4.8-5.31-8.724-5.319S9.22,21.857,7.252,25.2a.687.687,0,0,0,.182,1.071,13.59,13.59,0,0,0,8.548,3.085M59.851,60.615c-1.949-3.637-4.807-5.838-8.969-5.871-4.069-.032-6.973,2.006-8.929,5.507-.24.429.018.583.267.786A13.168,13.168,0,0,0,52.857,64a12.988,12.988,0,0,0,6.994-3.385M16.053,8.169A4.552,4.552,0,1,0,20.531,12.8a4.536,4.536,0,0,0-4.478-4.627m34.744,0a4.553,4.553,0,1,0,4.56,4.549A4.541,4.541,0,0,0,50.8,8.168m-4.55,39.3a4.554,4.554,0,1,0,4.619-4.486,4.541,4.541,0,0,0-4.619,4.486" transform="translate(0 0)" fill="#001c71"/>
        <path id="Path_26352" data-name="Path 26352" d="M346.728,29.038a1.3,1.3,0,0,1-1.329-1.244,1.332,1.332,0,0,1,1.308-1.347,1.294,1.294,0,0,1,1.28,1.294,1.258,1.258,0,0,1-1.259,1.3" transform="translate(-285.23 -21.84)" fill="#001c71"/>
        <path id="Path_26353" data-name="Path 26353" d="M54.483,261.278l5.665-8.492c.361-.542.711-1.091,1.084-1.625a1.333,1.333,0,0,1,1.867-.452,1.285,1.285,0,0,1,.3,1.89q-3.832,5.777-7.69,11.537a1.3,1.3,0,0,1-2.278.061q-2.195-2.789-4.356-5.6a1.3,1.3,0,0,1,.116-1.957,1.334,1.334,0,0,1,1.935.358c.968,1.227,1.921,2.466,2.882,3.7.145.186.3.365.476.584" transform="translate(-40.207 -206.859)" fill="#001c71"/>
      </g>
    </g>
  </g>
</svg>
