<svg id="direct-hire" xmlns="http://www.w3.org/2000/svg" xmlns:xlink="http://www.w3.org/1999/xlink" width="68.169" height="72.888" viewBox="0 0 68.169 72.888">
  <defs>
    <clipPath id="clip-path">
      <rect id="Rectangle_2393" data-name="Rectangle 2393" width="68.169" height="72.888" fill="#001c71"/>
    </clipPath>
  </defs>
  <g id="Group_7971" data-name="Group 7971" clip-path="url(#clip-path)">
    <path id="Path_26355" data-name="Path 26355" d="M29.831,0c1.3.329,2.641.558,3.9,1a15.185,15.185,0,0,1,9.9,13.611c.046,1.588.005,3.179.037,4.768a1.748,1.748,0,0,0,.265.913,5.1,5.1,0,0,1-3.341,8.1c-.186.034-.371.07-.6.113-.1.467-.195.951-.315,1.427a11.5,11.5,0,0,1-3.743,5.991,1.273,1.273,0,0,0-.387.822c-.045,1.063-.018,2.13-.018,3.2,2.114.822,4.183,1.642,6.27,2.413a.918.918,0,0,0,.753-.269,14.792,14.792,0,0,1,7.63-4.292,3.283,3.283,0,0,1,.7-.091.876.876,0,0,1,.97.838,1.95,1.95,0,0,1-.55,1.111c-.154.179-.523.18-.8.247a12.73,12.73,0,1,0,5.977.082c-.253-.061-.51-.109-.76-.183-.707-.208-1.057-.715-.909-1.3a1.039,1.039,0,0,1,1.388-.761,22.083,22.083,0,0,1,3.624,1.217A14.82,14.82,0,0,1,57.633,66.5c-.181.055-.359.119-.609.2,0,1.14,0,2.3,0,3.456A2.453,2.453,0,0,1,54.3,72.886q-25.8,0-51.6,0A2.4,2.4,0,0,1,.033,70.327c-.012-5.053-.1-10.108.059-15.157.143-4.65,2.691-7.816,6.9-9.56,4.592-1.9,9.26-3.627,13.9-5.406a.89.89,0,0,0,.649-.914,4.557,4.557,0,0,0-1.7-4.433,9.115,9.115,0,0,1-2.9-5.722c-.08-.471-.22-.674-.716-.748a5.032,5.032,0,0,1-3.329-8.038,1.487,1.487,0,0,0,.224-.857c.031-1.613-.01-3.227.048-4.838A15.232,15.232,0,0,1,26.3.152c.231-.032.457-.1.686-.152ZM23.978,52.575l-.337.219c-1.49.977-2.623.679-3.423-.905-.491-.972-.975-1.948-1.461-2.923L16.42,44.281a1.46,1.46,0,0,0-.261.04c-2.915,1.127-5.881,2.141-8.728,3.417a8.1,8.1,0,0,0-5.212,7.513C2.1,60.2,2.175,65.163,2.154,70.12c0,.507.209.646.687.64,1.636-.021,3.273-.008,4.909-.008H9.9v-.863q0-5.656,0-11.313a3.353,3.353,0,0,1,.036-.708A1,1,0,0,1,11,57.007a.991.991,0,0,1,1,.854,3.477,3.477,0,0,1,.037.708q0,5.692,0,11.385v.76H22.36c.029-.122.055-.211.07-.3.828-4.881,1.6-9.773,2.519-14.637a3.269,3.269,0,0,0-.971-3.2M18.87,18.751c0,2.852-.014,5.6.01,8.345a9.278,9.278,0,0,0,.214,1.972,9.422,9.422,0,0,0,9.871,7.384,9.187,9.187,0,0,0,8.826-8.288c.207-3.259.1-6.539.118-9.81a.821.821,0,0,0-.163-.517c-1.016-1.121-2.05-2.224-3.093-3.348A26.865,26.865,0,0,1,18.87,18.751m-3.532-.113c.551-.223,1.308-.292,1.469-.638a2.452,2.452,0,0,1,2.533-1.4,44.064,44.064,0,0,0,5.718-.482,22.894,22.894,0,0,0,8.194-3.272c1.318-.816,2.132-.688,3.2.444.847.9,1.674,1.809,2.514,2.712a2.782,2.782,0,0,1,1.086,2.181l1.315.268a44.378,44.378,0,0,0-.03-5.028A12.989,12.989,0,0,0,31.9,2.624,13.209,13.209,0,0,0,18.068,7.15c-2.645,3.369-3.055,7.235-2.729,11.489m17.709,33.93c-.812.893-1.422,1.823-.951,3.114a7.23,7.23,0,0,1,.24,1.327c.17,1.052.4,2.1.466,3.16a1.335,1.335,0,0,1-.624,1.032,1.378,1.378,0,0,1-1.119-.237c-.222-.149-.306-.569-.364-.884-.3-1.65-.571-3.305-.849-4.938H27.186L24.552,70.7h7.914c-.055-.361-.1-.666-.149-.969-.232-1.4-.48-2.8-.695-4.208a1.07,1.07,0,0,1,.832-1.292,1.088,1.088,0,0,1,1.239.9c.054.206.086.418.122.628q.423,2.479.841,4.953H45.015c0-1.695-.049-3.352.021-5a2.025,2.025,0,0,0-.893-1.824A14.532,14.532,0,0,1,38.92,48.829c.142-.692.38-1.363.573-2.045-.971,1.7-1.831,3.435-2.7,5.166a2.035,2.035,0,0,1-3.324.884c-.137-.093-.279-.178-.418-.266M23.657,37.656c0,.859-.014,1.59.009,2.319a1.038,1.038,0,0,0,.2.579c1.523,1.9,3.061,3.794,4.6,5.693a.891.891,0,0,0,.2-.131q2.266-2.782,4.521-5.571a.8.8,0,0,0,.188-.439c.018-.821.009-1.642.009-2.554a12.427,12.427,0,0,1-9.727.1m3.313,10.15C25.451,45.93,24,44.123,22.526,42.328c-.113-.137-.372-.307-.492-.264-1.209.439-2.4.919-3.631,1.4l3.839,7.7,4.727-3.355m3.09-.005L34.8,51.162l3.839-7.705-3.845-1.489L30.059,47.8M47.188,70.75c2.445,0,4.854.006,7.263-.016.144,0,.407-.224.411-.35.033-1.1.019-2.2.019-3.191-1.389-.1-2.674-.092-3.924-.3s-2.5-.617-3.768-.945ZM31.155,51.2c-.753-.534-1.554-1.116-2.374-1.669a.545.545,0,0,0-.49-.025c-.838.565-1.655,1.16-2.563,1.806.648.5.6,1.614,1.573,1.607,1.484-.01,3.311.665,3.855-1.719m8.929-24.908a2.937,2.937,0,0,0,2.7-3.076,2.894,2.894,0,0,0-2.7-2.779ZM16.716,20.506A2.947,2.947,0,0,0,14,23.538a2.792,2.792,0,0,0,2.72,2.7Z" transform="translate(0)" fill="#001c71"/>
    <path id="Path_26356" data-name="Path 26356" d="M247.973,231.117a11.083,11.083,0,1,1-11.083,11.109,11.117,11.117,0,0,1,11.083-11.109m-.016,2.134a8.948,8.948,0,1,0,8.985,8.865,8.995,8.995,0,0,0-8.985-8.865" transform="translate(-194.654 -189.909)" fill="#001c71"/>
    <path id="Path_26357" data-name="Path 26357" d="M279.335,278.961c1.194-1.284,2.385-2.571,3.587-3.848.193-.2.417-.487.655-.517a1.6,1.6,0,0,1,1.15.171,1.524,1.524,0,0,1,.255,1.134c-.026.254-.332.5-.549.713q-2.13,2.1-4.276,4.173c-.818.8-1.3.795-2.111,0-.678-.663-1.359-1.323-2.026-2a1.08,1.08,0,1,1,1.5-1.5c.5.5.956,1.051,1.432,1.579l.389.1" transform="translate(-226.421 -225.614)" fill="#001c71"/>
  </g>
</svg>
