<svg xmlns="http://www.w3.org/2000/svg" width="132.572" height="43.64" viewBox="0 0 132.572 43.64">
  <g id="google" transform="translate(-0.36 -0.47)">
    <path id="Path_26586" data-name="Path 26586" d="M93.129,35.905A10.94,10.94,0,1,1,82.189,25,10.77,10.77,0,0,1,93.129,35.905Zm-4.789,0a6.167,6.167,0,1,0-12.3,0,6.167,6.167,0,1,0,12.3,0Z" transform="translate(-36.036 -12.47)" fill="#ea4335"/>
    <path id="Path_26587" data-name="Path 26587" d="M141.129,35.905A10.94,10.94,0,1,1,130.189,25,10.77,10.77,0,0,1,141.129,35.905Zm-4.789,0a6.167,6.167,0,1,0-12.3,0,6.167,6.167,0,1,0,12.3,0Z" transform="translate(-60.436 -12.47)" fill="#fbbc05"/>
    <path id="Path_26588" data-name="Path 26588" d="M188.135,25.659V45.237c0,8.053-4.749,11.343-10.364,11.343a10.385,10.385,0,0,1-9.666-6.426l4.169-1.736a6.024,6.024,0,0,0,5.492,3.869c3.594,0,5.821-2.217,5.821-6.392V44.327h-.167a7.425,7.425,0,0,1-5.743,2.478,10.912,10.912,0,0,1,0-21.805,7.557,7.557,0,0,1,5.743,2.439h.167V25.664h4.548Zm-4.209,10.286c0-3.84-2.562-6.647-5.821-6.647-3.3,0-6.072,2.807-6.072,6.647a6.259,6.259,0,0,0,6.072,6.569C181.365,42.513,183.927,39.745,183.927,35.944Z" transform="translate(-84.826 -12.47)" fill="#4285f4"/>
    <path id="Path_26589" data-name="Path 26589" d="M220.171,3V34.958H215.5V3Z" transform="translate(-109.364 -1.286)" fill="#34a853"/>
    <path id="Path_26590" data-name="Path 26590" d="M245.28,39.489,249,41.967a10.854,10.854,0,0,1-9.086,4.833A10.67,10.67,0,0,1,229.09,35.9c0-6.485,4.666-10.905,10.286-10.905,5.659,0,8.427,4.5,9.332,6.937l.5,1.239L234.626,39.2a5.55,5.55,0,0,0,5.285,3.3,6.224,6.224,0,0,0,5.369-3.019Zm-11.441-3.923,9.745-4.046a4.222,4.222,0,0,0-4.046-2.311A5.982,5.982,0,0,0,233.839,35.566Z" transform="translate(-116.272 -12.464)" fill="#ea4335"/>
    <path id="Path_26591" data-name="Path 26591" d="M17.534,20.6V15.972H33.124a15.329,15.329,0,0,1,.231,2.793c0,3.471-.949,7.763-4.007,10.821a15.484,15.484,0,0,1-11.81,4.749A17.171,17.171,0,0,1,.36,17.4,17.171,17.171,0,0,1,17.539.47a16.135,16.135,0,0,1,11.6,4.666L25.877,8.4a11.793,11.793,0,0,0-8.343-3.3A12.146,12.146,0,0,0,5.39,17.4,12.146,12.146,0,0,0,17.534,29.709a11.328,11.328,0,0,0,8.55-3.388,9.589,9.589,0,0,0,2.507-5.728Z" transform="translate(0 0)" fill="#4285f4"/>
  </g>
</svg>
