<svg id="quotes" xmlns="http://www.w3.org/2000/svg" width="38.13" height="28.853" viewBox="0 0 38.13 28.853">
  <g id="Artboard-Copy" transform="translate(0 0)">
    <path id="quote1" d="M389.742,38.752a5.776,5.776,0,0,0-1.339-2.2,6.546,6.546,0,0,0-2.591-1.616,12.385,12.385,0,0,0-4.138-.582h-2.3a12.533,12.533,0,0,1,3.026-7.226,22.6,22.6,0,0,1,7.242-5.23L387.771,19a28.132,28.132,0,0,0-10.426,7.605q-4.333,5.018-4.324,9.95,0,5.3,2.512,8.3a8.9,8.9,0,0,0,7.22,2.994,7.472,7.472,0,0,0,5.176-1.984,6.078,6.078,0,0,0,2.2-4.641,8.051,8.051,0,0,0-.389-2.478m-21.021,0a5.783,5.783,0,0,0-1.337-2.2,6.59,6.59,0,0,0-2.589-1.616,12.425,12.425,0,0,0-4.141-.582h-2.3a12.511,12.511,0,0,1,3.024-7.226,22.6,22.6,0,0,1,7.242-5.23L366.749,19a28.157,28.157,0,0,0-10.426,7.605q-4.33,5.018-4.323,9.95,0,5.3,2.514,8.3a8.89,8.89,0,0,0,7.218,2.994,7.467,7.467,0,0,0,5.177-1.984,6.078,6.078,0,0,0,2.2-4.641,7.959,7.959,0,0,0-.389-2.478" transform="translate(-352 -19.002)" fill="#001c71" fill-rule="evenodd"/>
  </g>
</svg>
