<svg xmlns="http://www.w3.org/2000/svg" xmlns:xlink="http://www.w3.org/1999/xlink" width="67" height="67" viewBox="0 0 67 67">
  <defs>
    <clipPath id="clip-path">
      <rect id="Rectangle_2410" data-name="Rectangle 2410" width="67" height="67" transform="translate(0.352 0.352)" fill="#001c71"/>
    </clipPath>
  </defs>
  <g id="recruitment-process-outsourcing" transform="translate(-0.352 -0.352)">
    <g id="Group_7993" data-name="Group 7993" clip-path="url(#clip-path)">
      <path id="Path_26378" data-name="Path 26378" d="M107.189,67.352a4.539,4.539,0,0,1-3.336-2.5,5.69,5.69,0,0,1-.476-2.149c-.041-4.711-.019-9.422-.025-14.134a1.22,1.22,0,0,1,.865-1.372.5.5,0,0,0,.227-.391c.023-.7.011-1.4.011-2.164-.572-.115-1.127-.206-1.671-.339A22.24,22.24,0,0,1,89.4,35.212a21.814,21.814,0,0,1-4-12.636A21.9,21.9,0,0,1,89.4,9.676a21.847,21.847,0,0,1,11.553-8.563,44.4,44.4,0,0,1,4.939-1c.212-.042.426-.074.64-.11h2.631c1.419.243,2.856.408,4.253.744a21.434,21.434,0,0,1,10.263,5.828,21.1,21.1,0,0,1,6.185,11.789c1.478,9.4-1.705,16.964-9.374,22.58a19.875,19.875,0,0,1-8.418,3.5c-.7.122-1,.377-.877,1.088a3.25,3.25,0,0,1,0,.787.888.888,0,0,0,.569,1.069,1.316,1.316,0,0,1,.53,1.024c.033,4.843.048,9.686.005,14.529A4.393,4.393,0,0,1,109,67.188c-.165.049-.327.109-.491.164Zm.637-65.089a20.194,20.194,0,1,0,20.188,20.21,20.269,20.269,0,0,0-20.188-20.21M105.6,49.432c0,1.344,0,2.61,0,3.877,0,3.2-.011,6.392.011,9.587a2.215,2.215,0,0,0,2.222,2.209,2.266,2.266,0,0,0,2.24-2.139c.011-.152.008-.306.008-.459q0-6.206,0-12.411v-.663Zm1.143-2.331h2.173V44.9h-2.173Z" transform="translate(-74.171)" fill="#001c71"/>
      <path id="Path_26379" data-name="Path 26379" d="M24.731,333.122c-.012-.678-.021-1.357-.036-2.035a3.383,3.383,0,0,0-2.76-3.51c-1.694-.44-3.394-.855-5.09-1.287a1.246,1.246,0,0,1-1.144-1.429c-.01-.35.03-.7-.008-1.051a2.093,2.093,0,0,1,1.124-2.294,2.141,2.141,0,0,0,1.067-1.867c.029-2.518.1-5.041-.026-7.554a4.432,4.432,0,0,0-8.752-.127c-.162,2.55-.081,5.118-.05,7.677a2.363,2.363,0,0,0,1.271,2.028,1.617,1.617,0,0,1,.894,1.674c-.044.522,0,1.051-.011,1.577a1.179,1.179,0,0,1-1.063,1.349c-1.611.409-3.226.807-4.84,1.207-2.182.541-3.065,1.672-3.066,3.933,0,.57,0,1.139,0,1.709H0V330.1a17.14,17.14,0,0,1,.883-2.171,5.461,5.461,0,0,1,3.655-2.563c1.444-.356,2.886-.72,4.348-1.085a.84.84,0,0,0-.3-1.073,4.519,4.519,0,0,1-1.809-3.445,72.83,72.83,0,0,1,.095-8,6.108,6.108,0,0,1,4.221-5.241,6.317,6.317,0,0,1,6.544,1.04,6.235,6.235,0,0,1,2.52,4.915c.049,2.408.041,4.818-.014,7.226a4.876,4.876,0,0,1-1.784,3.536,1.249,1.249,0,0,0-.369.806c0,.125.391.321.632.385,1.247.331,2.5.628,3.754.94a5.668,5.668,0,0,1,4.56,5.726c.013.678.018,1.357.026,2.036Z" transform="translate(0 -265.77)" fill="#001c71"/>
      <path id="Path_26380" data-name="Path 26380" d="M331.731,333.169c-.008-.7-.007-1.4-.024-2.1a3.384,3.384,0,0,0-2.7-3.428c-1.715-.447-3.437-.865-5.154-1.3-.871-.222-1.11-.529-1.134-1.43-.007-.263.022-.528-.006-.788a2.372,2.372,0,0,1,1.214-2.644,2.428,2.428,0,0,0,1.029-2.236c0-2.3.04-4.6-.072-6.9a4.426,4.426,0,0,0-8.8-.065c-.127,2.466-.056,4.944-.016,7.416a2.371,2.371,0,0,0,1.27,2.03,1.62,1.62,0,0,1,.894,1.673c-.042.523,0,1.051-.011,1.577a1.181,1.181,0,0,1-1.063,1.349c-1.717.439-3.439.854-5.154,1.3a3.385,3.385,0,0,0-2.756,3.575c-.005.657-.007,1.315-.01,1.972H307c0-.658,0-1.315,0-1.973a5.663,5.663,0,0,1,4.564-5.79c1.316-.33,2.633-.656,3.947-.995a.545.545,0,0,0,.25-1,5.608,5.608,0,0,1-2.041-4.89c.062-2.211-.095-4.442.144-6.632a6.214,6.214,0,0,1,4.717-5.492,6.378,6.378,0,0,1,7,2.1,6.6,6.6,0,0,1,1.636,4.53q.01,3.025,0,6.05a5.322,5.322,0,0,1-1.944,4.278.982.982,0,0,0-.265.725c.008.132.313.307.511.359,1.438.38,2.9.679,4.323,1.108a5.418,5.418,0,0,1,4.026,4.623,1.108,1.108,0,0,0,.1.235v2.762Z" transform="translate(-266.615 -265.817)" fill="#001c71"/>
      <path id="Path_26381" data-name="Path 26381" d="M412.7,132l-1.821-1.247a25,25,0,0,0,3.162-21.478l2.079-.674a25.521,25.521,0,0,1,1.283,8.593A26.664,26.664,0,0,1,412.7,132" transform="translate(-356.83 -94.316)" fill="#001c71"/>
      <path id="Path_26382" data-name="Path 26382" d="M54.551,31.736l-1.977.636A26.752,26.752,0,0,1,63.009,2l1.184,1.736c-9.289,7.254-12.514,16.533-9.642,28" transform="translate(-44.499 -1.74)" fill="#001c71"/>
      <path id="Path_26383" data-name="Path 26383" d="M69.524,244.221l1.038,2.137-1.956,1.081-1.142-2.324,2.06-.893" transform="translate(-58.589 -212.095)" fill="#001c71"/>
      <path id="Path_26384" data-name="Path 26384" d="M155.765,73.2h-2.088a52.686,52.686,0,0,1,.054-6.389,5.222,5.222,0,0,1,4.225-4.5c1.374-.367,2.759-.69,4.134-1.054.179-.047.451-.212.458-.334a.911.911,0,0,0-.235-.676,5.385,5.385,0,0,1-1.986-4.515c.039-2.016-.015-4.033.016-6.049a6.715,6.715,0,0,1,13.42-.359c.057,2.344.04,4.69,0,7.034a5.065,5.065,0,0,1-1.837,3.787,1.319,1.319,0,0,0-.346.815c-.009.1.375.276.6.337,1.457.392,2.939.7,4.378,1.152A5.414,5.414,0,0,1,180.5,67.69c.042,1.816.008,3.633.008,5.5h-2.237c0-1.01,0-2.011,0-3.012,0-.789.01-1.578,0-2.367a3.268,3.268,0,0,0-2.519-3.277c-1.709-.468-3.434-.876-5.153-1.307-1.064-.267-1.283-.543-1.286-1.642a7.031,7.031,0,0,0-.006-.854,2.133,2.133,0,0,1,1.139-2.343,2.513,2.513,0,0,0,1.1-2.273c.019-2.169.049-4.34-.008-6.509a4.467,4.467,0,0,0-8.933.022c-.047,2.169-.021,4.339-.007,6.509a2.72,2.72,0,0,0,1.369,2.467,1.639,1.639,0,0,1,.871,1.691c-.036.479,0,.964-.008,1.446a1.253,1.253,0,0,1-1.131,1.444c-1.632.416-3.268.821-4.9,1.226a3.426,3.426,0,0,0-2.942,3.755q-.01,2.432-.017,4.865a.7.7,0,0,1-.064.169" transform="translate(-133.395 -37.314)" fill="#001c71"/>
      <rect id="Rectangle_2408" data-name="Rectangle 2408" width="2.151" height="5.498" transform="translate(24.743 32.61)" fill="#001c71"/>
      <rect id="Rectangle_2409" data-name="Rectangle 2409" width="2.144" height="5.526" transform="translate(40.432 32.614)" fill="#001c71"/>
    </g>
  </g>
</svg>
