<svg xmlns="http://www.w3.org/2000/svg" xmlns:xlink="http://www.w3.org/1999/xlink" width="56.728" height="56.735" viewBox="0 0 56.728 56.735">
  <defs>
    <clipPath id="clip-path">
      <rect width="56.728" height="56.735" fill="none"/>
    </clipPath>
    <clipPath id="clip-path-2">
      <rect id="Rectangle_2399" data-name="Rectangle 2399" width="56.728" height="56.735" fill="#001c71"/>
    </clipPath>
  </defs>
  <g id="sourcing" clip-path="url(#clip-path)">
    <g id="sourcing-2" data-name="sourcing">
      <g id="Group_7975" data-name="Group 7975" clip-path="url(#clip-path-2)">
        <path id="Path_26362" data-name="Path 26362" d="M2.775,56.735a10.111,10.111,0,0,1-1.8-1.023A3.314,3.314,0,0,1,0,53.046q.011-19.8,0-39.61,0-4.875,0-9.75A3.374,3.374,0,0,1,3.687,0q19.8,0,39.6,0a3.371,3.371,0,0,1,3.69,3.674q0,5.65,0,11.3a3.92,3.92,0,0,1-.01.443,1.1,1.1,0,0,1-2.191.02,4.592,4.592,0,0,1-.013-.553q0-5.567,0-11.135c0-1.171-.358-1.534-1.514-1.534H3.758c-1.171,0-1.537.359-1.537,1.511q0,24.652,0,49.3c0,1.119.373,1.486,1.506,1.486H43.274c1.121,0,1.488-.372,1.489-1.5q0-3.6,0-7.2c0-.129,0-.258,0-.388.02-.769.449-1.267,1.1-1.276A1.137,1.137,0,0,1,46.976,45.4c.012.7,0,1.4,0,2.105q0,2.77,0,5.54a3.326,3.326,0,0,1-2.631,3.6.675.675,0,0,0-.138.084Z" transform="translate(0)" fill="#001c71"/>
        <path id="Path_26363" data-name="Path 26363" d="M261.554,104.951c-.8,2.444-2.318,4.505-3.57,6.7-3.548,6.233-7.153,12.434-10.754,18.637a3.654,3.654,0,0,1-.941,1.056q-3.206,2.413-6.462,4.758a1.971,1.971,0,0,1-1.1.38c-.589-.011-.953-.556-.892-1.24.111-1.249.261-2.495.4-3.742.166-1.5.317-3.009.514-4.508a3.452,3.452,0,0,1,.389-1.248q6.781-11.8,13.6-23.575a4.628,4.628,0,0,1,6.245-2.064,4.511,4.511,0,0,1,2.464,3.161c.029.119.077.234.117.351Zm-15.93,23.714,11.186-19.382-4.22-2.436L241.4,126.224l4.221,2.441m12.3-21.3c.421-.749.836-1.4,1.169-2.1a2.417,2.417,0,0,0-4.192-2.379c-.429.64-.792,1.324-1.21,2.031l4.232,2.446m-17.637,25.664,3.716-2.741-3.2-1.846-.516,4.588" transform="translate(-204.826 -85.781)" fill="#001c71"/>
        <path id="Path_26364" data-name="Path 26364" d="M106.045,43.14A10.193,10.193,0,1,1,95.862,53.326,10.224,10.224,0,0,1,106.045,43.14m-6.6,14.575c.531-.405,1.078-.845,1.647-1.252s1.155-.776,1.768-1.185a4.879,4.879,0,0,1-.71-3.8,3.964,3.964,0,0,1,7.815.014,4.876,4.876,0,0,1-.756,3.838,8.021,8.021,0,0,1,3.229,2.678,7.936,7.936,0,0,0-11.953-10.37c-3.138,3.055-2.954,7.709-1.04,10.074m1.812,1.948a7.831,7.831,0,0,0,9.586-.014,5.541,5.541,0,0,0-9.586.014m6.585-7.124h-.019c0-.147.008-.3,0-.442a1.752,1.752,0,0,0-1.608-1.675,1.685,1.685,0,0,0-1.864,1.365,4.272,4.272,0,0,0,.013,1.53,1.692,1.692,0,0,0,1.727,1.343,1.774,1.774,0,0,0,1.692-1.406,5.424,5.424,0,0,0,.059-.713" transform="translate(-82.561 -37.154)" fill="#001c71"/>
        <path id="Path_26365" data-name="Path 26365" d="M100.09,217.843H92.668a3.8,3.8,0,0,1-.553-.019,1.093,1.093,0,0,1,0-2.176,3.759,3.759,0,0,1,.553-.02h14.954c.9,0,1.432.418,1.433,1.107s-.534,1.107-1.432,1.108q-3.766,0-7.532,0" transform="translate(-78.48 -185.707)" fill="#001c71"/>
        <path id="Path_26366" data-name="Path 26366" d="M100.089,262.565H92.667a3.8,3.8,0,0,1-.553-.019,1.093,1.093,0,0,1,0-2.176,3.761,3.761,0,0,1,.553-.02H107.62c.9.005,1.433.418,1.433,1.107s-.534,1.107-1.432,1.108q-3.766,0-7.532,0" transform="translate(-78.479 -224.224)" fill="#001c71"/>
        <path id="Path_26367" data-name="Path 26367" d="M100.093,305.07q3.738,0,7.477,0a2.873,2.873,0,0,1,.6.044,1.082,1.082,0,0,1-.009,2.128,2.959,2.959,0,0,1-.605.041q-7.477,0-14.954,0a2.734,2.734,0,0,1-.657-.06,1.075,1.075,0,0,1,.009-2.094,2.806,2.806,0,0,1,.658-.057q3.738-.006,7.477,0" transform="translate(-78.479 -262.741)" fill="#001c71"/>
        <path id="Path_26368" data-name="Path 26368" d="M165.43,351.994c-.9,0-1.809.005-2.713,0-.807-.006-1.324-.439-1.331-1.1s.512-1.112,1.312-1.115q2.769-.011,5.537,0c.807,0,1.324.438,1.331,1.1s-.512,1.108-1.312,1.115c-.941.008-1.883,0-2.824,0" transform="translate(-138.993 -301.243)" fill="#001c71"/>
        <path id="Path_26369" data-name="Path 26369" d="M58.1,215.691a1.1,1.1,0,0,1,.041,2.2,1.1,1.1,0,0,1-.041-2.2" transform="translate(-49.112 -185.763)" fill="#001c71"/>
        <path id="Path_26370" data-name="Path 26370" d="M58.132,262.611a1.1,1.1,0,0,1-.015-2.2,1.1,1.1,0,0,1,.015,2.2" transform="translate(-49.113 -224.278)" fill="#001c71"/>
        <path id="Path_26371" data-name="Path 26371" d="M59.212,306.227a1.108,1.108,0,0,1-1.081,1.106,1.1,1.1,0,0,1-.012-2.2,1.109,1.109,0,0,1,1.093,1.094" transform="translate(-49.113 -262.795)" fill="#001c71"/>
      </g>
    </g>
  </g>
</svg>
