<svg id="testimonial-5stars" xmlns="http://www.w3.org/2000/svg" xmlns:xlink="http://www.w3.org/1999/xlink" width="198.224" height="34.583" viewBox="0 0 198.224 34.583">
  <defs>
    <clipPath id="clip-path">
      <rect id="Rectangle_18" data-name="Rectangle 18" width="36.122" height="34.583" fill="#ffca3a"/>
    </clipPath>
  </defs>
  <g id="Group_43" data-name="Group 43" transform="translate(0 0)">
    <g id="Group_42" data-name="Group 42" clip-path="url(#clip-path)">
      <path id="Path_42" data-name="Path 42" d="M36.122,13.694a6.727,6.727,0,0,1-.68.784Q31.3,18.014,27.13,21.525a.6.6,0,0,0-.242.707c.919,3.606,1.818,7.216,2.722,10.826.229.912-.265,1.61-1.089,1.511a1.567,1.567,0,0,1-.609-.249q-4.726-2.945-9.439-5.909a.634.634,0,0,0-.8-.012q-4.691,2.967-9.407,5.895a1.8,1.8,0,0,1-.6.272,1.035,1.035,0,0,1-1.184-1.311c.6-2.44,1.213-4.876,1.821-7.313.318-1.276.628-2.553.96-3.825a.422.422,0,0,0-.164-.505q-4.3-3.63-8.584-7.273a1.081,1.081,0,0,1-.443-1.265A1.124,1.124,0,0,1,1.2,12.349q3.8-.261,7.6-.534c1.161-.081,2.321-.172,3.483-.231a.516.516,0,0,0,.529-.387Q14.892,6,16.994.811C17.229.23,17.527,0,18.054,0a1.039,1.039,0,0,1,1.07.8q2.1,5.208,4.2,10.419a.494.494,0,0,0,.5.367c2.909.19,5.816.4,8.724.6.75.052,1.5.134,2.251.149a1.346,1.346,0,0,1,1.321.8Z" transform="translate(0 0)" fill="#ffca3a"/>
    </g>
  </g>
  <g id="Group_44" data-name="Group 44" transform="translate(40.526 0)">
    <g id="Group_42-2" data-name="Group 42" clip-path="url(#clip-path)">
      <path id="Path_42-2" data-name="Path 42" d="M36.122,13.694a6.727,6.727,0,0,1-.68.784Q31.3,18.014,27.13,21.525a.6.6,0,0,0-.242.707c.919,3.606,1.818,7.216,2.722,10.826.229.912-.265,1.61-1.089,1.511a1.567,1.567,0,0,1-.609-.249q-4.726-2.945-9.439-5.909a.634.634,0,0,0-.8-.012q-4.691,2.967-9.407,5.895a1.8,1.8,0,0,1-.6.272,1.035,1.035,0,0,1-1.184-1.311c.6-2.44,1.213-4.876,1.821-7.313.318-1.276.628-2.553.96-3.825a.422.422,0,0,0-.164-.505q-4.3-3.63-8.584-7.273a1.081,1.081,0,0,1-.443-1.265A1.124,1.124,0,0,1,1.2,12.349q3.8-.261,7.6-.534c1.161-.081,2.321-.172,3.483-.231a.516.516,0,0,0,.529-.387Q14.892,6,16.994.811C17.229.23,17.527,0,18.054,0a1.039,1.039,0,0,1,1.07.8q2.1,5.208,4.2,10.419a.494.494,0,0,0,.5.367c2.909.19,5.816.4,8.724.6.75.052,1.5.134,2.251.149a1.346,1.346,0,0,1,1.321.8Z" transform="translate(0 0)" fill="#ffca3a"/>
    </g>
  </g>
  <g id="Group_45" data-name="Group 45" transform="translate(81.051 0)">
    <g id="Group_42-3" data-name="Group 42" clip-path="url(#clip-path)">
      <path id="Path_42-3" data-name="Path 42" d="M36.122,13.694a6.727,6.727,0,0,1-.68.784Q31.3,18.014,27.13,21.525a.6.6,0,0,0-.242.707c.919,3.606,1.818,7.216,2.722,10.826.229.912-.265,1.61-1.089,1.511a1.567,1.567,0,0,1-.609-.249q-4.726-2.945-9.439-5.909a.634.634,0,0,0-.8-.012q-4.691,2.967-9.407,5.895a1.8,1.8,0,0,1-.6.272,1.035,1.035,0,0,1-1.184-1.311c.6-2.44,1.213-4.876,1.821-7.313.318-1.276.628-2.553.96-3.825a.422.422,0,0,0-.164-.505q-4.3-3.63-8.584-7.273a1.081,1.081,0,0,1-.443-1.265A1.124,1.124,0,0,1,1.2,12.349q3.8-.261,7.6-.534c1.161-.081,2.321-.172,3.483-.231a.516.516,0,0,0,.529-.387Q14.892,6,16.994.811C17.229.23,17.527,0,18.054,0a1.039,1.039,0,0,1,1.07.8q2.1,5.208,4.2,10.419a.494.494,0,0,0,.5.367c2.909.19,5.816.4,8.724.6.75.052,1.5.134,2.251.149a1.346,1.346,0,0,1,1.321.8Z" transform="translate(0 0)" fill="#ffca3a"/>
    </g>
  </g>
  <g id="Group_46" data-name="Group 46" transform="translate(121.577 0)">
    <g id="Group_42-4" data-name="Group 42" clip-path="url(#clip-path)">
      <path id="Path_42-4" data-name="Path 42" d="M36.122,13.694a6.727,6.727,0,0,1-.68.784Q31.3,18.014,27.13,21.525a.6.6,0,0,0-.242.707c.919,3.606,1.818,7.216,2.722,10.826.229.912-.265,1.61-1.089,1.511a1.567,1.567,0,0,1-.609-.249q-4.726-2.945-9.439-5.909a.634.634,0,0,0-.8-.012q-4.691,2.967-9.407,5.895a1.8,1.8,0,0,1-.6.272,1.035,1.035,0,0,1-1.184-1.311c.6-2.44,1.213-4.876,1.821-7.313.318-1.276.628-2.553.96-3.825a.422.422,0,0,0-.164-.505q-4.3-3.63-8.584-7.273a1.081,1.081,0,0,1-.443-1.265A1.124,1.124,0,0,1,1.2,12.349q3.8-.261,7.6-.534c1.161-.081,2.321-.172,3.483-.231a.516.516,0,0,0,.529-.387Q14.892,6,16.994.811C17.229.23,17.527,0,18.054,0a1.039,1.039,0,0,1,1.07.8q2.1,5.208,4.2,10.419a.494.494,0,0,0,.5.367c2.909.19,5.816.4,8.724.6.75.052,1.5.134,2.251.149a1.346,1.346,0,0,1,1.321.8Z" transform="translate(0 0)" fill="#ffca3a"/>
    </g>
  </g>
  <g id="Group_47" data-name="Group 47" transform="translate(162.102 0)">
    <g id="Group_42-5" data-name="Group 42" clip-path="url(#clip-path)">
      <path id="Path_42-5" data-name="Path 42" d="M36.122,13.694a6.727,6.727,0,0,1-.68.784Q31.3,18.014,27.13,21.525a.6.6,0,0,0-.242.707c.919,3.606,1.818,7.216,2.722,10.826.229.912-.265,1.61-1.089,1.511a1.567,1.567,0,0,1-.609-.249q-4.726-2.945-9.439-5.909a.634.634,0,0,0-.8-.012q-4.691,2.967-9.407,5.895a1.8,1.8,0,0,1-.6.272,1.035,1.035,0,0,1-1.184-1.311c.6-2.44,1.213-4.876,1.821-7.313.318-1.276.628-2.553.96-3.825a.422.422,0,0,0-.164-.505q-4.3-3.63-8.584-7.273a1.081,1.081,0,0,1-.443-1.265A1.124,1.124,0,0,1,1.2,12.349q3.8-.261,7.6-.534c1.161-.081,2.321-.172,3.483-.231a.516.516,0,0,0,.529-.387Q14.892,6,16.994.811C17.229.23,17.527,0,18.054,0a1.039,1.039,0,0,1,1.07.8q2.1,5.208,4.2,10.419a.494.494,0,0,0,.5.367c2.909.19,5.816.4,8.724.6.75.052,1.5.134,2.251.149a1.346,1.346,0,0,1,1.321.8Z" transform="translate(0 0)" fill="#ffca3a"/>
    </g>
  </g>
</svg>
