<svg xmlns="http://www.w3.org/2000/svg" width="145" height="27" viewBox="0 0 145 27">
  <g id="Trustpilot-5stars" transform="translate(0.466 0.168)">
    <g id="Group_8185" data-name="Group 8185" transform="translate(-0.466 -0.4)">
      <rect id="Rectangle-path" width="27" height="27" transform="translate(0.001 0.232)" fill="#00b67a"/>
      <rect id="Rectangle-path-2" data-name="Rectangle-path" width="26" height="27" transform="translate(30.001 0.232)" fill="#00b67a"/>
      <rect id="Rectangle-path-3" data-name="Rectangle-path" width="27" height="27" transform="translate(59.001 0.232)" fill="#00b67a"/>
      <rect id="Rectangle-path-4" data-name="Rectangle-path" width="27" height="27" transform="translate(88.001 0.232)" fill="#00b67a"/>
      <rect id="Rectangle-path-5" data-name="Rectangle-path" width="28" height="27" transform="translate(117.001 0.232)" fill="#00b67a"/>
      <path id="Shape" d="M23.828,29.808l4.1-1.038,1.712,5.275Zm9.428-6.818H26.044L23.828,16.2l-2.217,6.79H14.4L20.236,27.2l-2.217,6.79,5.836-4.209L27.447,27.2l5.808-4.209Z" transform="translate(-10.039 -11.38)" fill="#fff"/>
      <path id="Shape-2" data-name="Shape" d="M127.828,29.808l4.1-1.038,1.712,5.275Zm9.428-6.818h-7.211l-2.217-6.79-2.217,6.79H118.4l5.836,4.209-2.217,6.79,5.836-4.209,3.591-2.581,5.808-4.209Z" transform="translate(-84.859 -11.38)" fill="#fff"/>
      <path id="Shape-3" data-name="Shape" d="M231.827,29.808l4.1-1.038,1.712,5.275Zm9.428-6.818h-7.211l-2.217-6.79-2.217,6.79H222.4l5.836,4.209-2.217,6.79,5.836-4.209,3.591-2.581,5.808-4.209Z" transform="translate(-159.678 -11.38)" fill="#fff"/>
      <path id="Shape-4" data-name="Shape" d="M335.828,29.808l4.1-1.038,1.712,5.275Zm9.428-6.818h-7.211l-2.217-6.79-2.217,6.79H326.4l5.836,4.209-2.217,6.79,5.836-4.209,3.591-2.581,5.808-4.209Z" transform="translate(-234.498 -11.38)" fill="#fff"/>
      <path id="Shape-5" data-name="Shape" d="M439.828,29.808l4.1-1.038,1.712,5.275Zm9.427-6.818h-7.211l-2.217-6.79-2.217,6.79H430.4l5.836,4.209-2.217,6.79,5.836-4.209,3.591-2.581,5.808-4.209Z" transform="translate(-309.317 -11.38)" fill="#fff"/>
    </g>
  </g>
</svg>
