<svg xmlns="http://www.w3.org/2000/svg" width="199.357" height="48.942" viewBox="0 0 199.357 48.942">
  <g id="Trustpilot-logo" transform="translate(-20.5 -248.5)">
    <path id="Path_26592" data-name="Path 26592" d="M178.133,300.7H198.3v3.755H190.36V325.62h-4.353V304.455H178.1Zm19.3,6.878h3.721v3.489h.066a4.383,4.383,0,0,1,.7-1.429,5.522,5.522,0,0,1,1.229-1.263,5.438,5.438,0,0,1,1.595-.93,4.642,4.642,0,0,1,1.761-.365c.465,0,.8.033.964.033a2.913,2.913,0,0,0,.532.066V311a6.716,6.716,0,0,0-.864-.133,7.557,7.557,0,0,0-.864-.066,4.612,4.612,0,0,0-1.894.4,4.8,4.8,0,0,0-1.562,1.163,6.3,6.3,0,0,0-1.063,1.927,8.132,8.132,0,0,0-.4,2.658v8.572h-3.987Zm28.84,18.042h-3.921v-2.525h-.066a5.567,5.567,0,0,1-2.193,2.193,5.788,5.788,0,0,1-2.957.831c-2.359,0-4.087-.565-5.15-1.761a7.7,7.7,0,0,1-1.595-5.316V307.578h3.987v11.064a4.715,4.715,0,0,0,.93,3.356,3.28,3.28,0,0,0,2.558,1,4.9,4.9,0,0,0,2.093-.4,3.61,3.61,0,0,0,1.362-1.03,4.041,4.041,0,0,0,.764-1.562,7.378,7.378,0,0,0,.233-1.96V307.578h3.987V325.62Zm6.778-5.781a3.136,3.136,0,0,0,1.329,2.459,5.232,5.232,0,0,0,2.758.7,9.133,9.133,0,0,0,1.263-.1,5.564,5.564,0,0,0,1.329-.332,2.338,2.338,0,0,0,1.03-.731,1.7,1.7,0,0,0,.366-1.229,1.788,1.788,0,0,0-.565-1.263,4.705,4.705,0,0,0-1.329-.8,11.517,11.517,0,0,0-1.861-.5c-.7-.133-1.4-.3-2.127-.465s-1.462-.365-2.16-.6a6.189,6.189,0,0,1-1.861-.964,4.143,4.143,0,0,1-1.3-1.528,4.776,4.776,0,0,1-.5-2.293,3.929,3.929,0,0,1,.731-2.459,5.3,5.3,0,0,1,1.827-1.595,8.3,8.3,0,0,1,2.459-.864,14.082,14.082,0,0,1,2.558-.233,11.432,11.432,0,0,1,2.658.3,6.72,6.72,0,0,1,2.293.964,5.264,5.264,0,0,1,1.695,1.728,5.984,5.984,0,0,1,.864,2.558h-4.153a2.557,2.557,0,0,0-1.3-1.927,5.35,5.35,0,0,0-2.359-.5c-.266,0-.631.033-1,.066a5.872,5.872,0,0,0-1.1.266,2.6,2.6,0,0,0-.864.565,1.329,1.329,0,0,0-.365.964,1.461,1.461,0,0,0,.5,1.163,4.516,4.516,0,0,0,1.329.764,11.523,11.523,0,0,0,1.861.5c.7.133,1.429.3,2.16.465s1.429.366,2.126.6a5.82,5.82,0,0,1,1.861.964,4.792,4.792,0,0,1,1.329,1.5,4.593,4.593,0,0,1,.5,2.226,4.843,4.843,0,0,1-.731,2.725,6.213,6.213,0,0,1-1.894,1.827,9.392,9.392,0,0,1-2.592,1.03,13.921,13.921,0,0,1-2.824.332,11.9,11.9,0,0,1-3.156-.4,8.04,8.04,0,0,1-2.525-1.163,5.578,5.578,0,0,1-1.661-1.96,6.4,6.4,0,0,1-.665-2.791h4.02v.033Zm13.124-12.26H249.2v-5.449h3.987v5.416h3.588V310.5h-3.588v9.636a10.231,10.231,0,0,0,.066,1.1,2.3,2.3,0,0,0,.233.764,1.3,1.3,0,0,0,.565.465,2.964,2.964,0,0,0,1.063.166,6.95,6.95,0,0,0,.831-.033,7.2,7.2,0,0,0,.831-.133v3.09c-.432.066-.864.1-1.3.133a8.25,8.25,0,0,1-1.3.066,8.587,8.587,0,0,1-2.525-.3,3.629,3.629,0,0,1-1.5-.864,3.089,3.089,0,0,1-.731-1.429,11.343,11.343,0,0,1-.233-1.994V310.535H246.18v-2.957Zm13.39,0h3.755v2.459h.066a4.936,4.936,0,0,1,2.326-2.259,7.534,7.534,0,0,1,3.256-.7,8.187,8.187,0,0,1,3.721.764,6.982,6.982,0,0,1,2.625,2.06,8.592,8.592,0,0,1,1.562,3.057,13.423,13.423,0,0,1,.066,7.243,9.775,9.775,0,0,1-1.429,3.024,7.069,7.069,0,0,1-2.426,2.093,7.17,7.17,0,0,1-3.455.8,10.141,10.141,0,0,1-1.728-.166,7.352,7.352,0,0,1-1.661-.5,5.958,5.958,0,0,1-1.462-.9,5.063,5.063,0,0,1-1.13-1.263h-.066v9H259.6v-24.72Zm13.922,9.038a8.1,8.1,0,0,0-.332-2.359,6.017,6.017,0,0,0-.964-2.027,5.316,5.316,0,0,0-1.562-1.429,4.25,4.25,0,0,0-2.16-.532A4.413,4.413,0,0,0,264.688,312a7.87,7.87,0,0,0-1.263,4.652,8.606,8.606,0,0,0,.332,2.525,5.625,5.625,0,0,0,1,1.994,4.747,4.747,0,0,0,1.595,1.329,4.5,4.5,0,0,0,2.16.5,4.421,4.421,0,0,0,2.293-.565A5.355,5.355,0,0,0,272.363,321a5.847,5.847,0,0,0,.864-2.027A11.412,11.412,0,0,0,273.492,316.615ZM280.5,300.7h3.987v3.755H280.5Zm0,6.878h3.987V325.62H280.5Zm7.542-6.878h3.987v24.92h-3.987Zm16.148,25.418a9.494,9.494,0,0,1-3.854-.731,8.748,8.748,0,0,1-2.857-1.96,8.535,8.535,0,0,1-1.761-3.024,11.812,11.812,0,0,1-.631-3.821,10.792,10.792,0,0,1,.631-3.788,8.835,8.835,0,0,1,1.761-3.024,7.969,7.969,0,0,1,2.857-1.96,10.085,10.085,0,0,1,3.854-.731,9.495,9.495,0,0,1,3.854.731,8.27,8.27,0,0,1,2.857,1.96,8.535,8.535,0,0,1,1.761,3.024,11.608,11.608,0,0,1,.631,3.788,10.849,10.849,0,0,1-.631,3.821,9.4,9.4,0,0,1-1.761,3.024,7.969,7.969,0,0,1-2.857,1.96A9.962,9.962,0,0,1,304.193,326.118Zm0-3.156a4.6,4.6,0,0,0,2.293-.565,4.809,4.809,0,0,0,1.595-1.462,6.262,6.262,0,0,0,.93-2.027,9.064,9.064,0,0,0,0-4.618,5.957,5.957,0,0,0-.93-2.027,5.047,5.047,0,0,0-1.595-1.429,4.686,4.686,0,0,0-2.293-.565,4.6,4.6,0,0,0-2.293.565,5.087,5.087,0,0,0-1.595,1.429,5.957,5.957,0,0,0-.93,2.027,9.066,9.066,0,0,0,0,4.618,5.957,5.957,0,0,0,.93,2.027A5.153,5.153,0,0,0,301.9,322.4,4.351,4.351,0,0,0,304.193,322.962Zm10.3-15.384h3.024v-5.449H321.5v5.416h3.588V310.5H321.5v9.636a10.223,10.223,0,0,0,.066,1.1,2.3,2.3,0,0,0,.233.764,1.3,1.3,0,0,0,.565.465,2.964,2.964,0,0,0,1.063.166,6.949,6.949,0,0,0,.831-.033,7.2,7.2,0,0,0,.831-.133v3.09c-.432.066-.864.1-1.3.133a8.253,8.253,0,0,1-1.3.066,8.587,8.587,0,0,1-2.525-.3,3.629,3.629,0,0,1-1.5-.864,3.089,3.089,0,0,1-.731-1.429,11.339,11.339,0,0,1-.233-1.994V310.535h-3.024v-2.957Z" transform="translate(-105.235 -34.856)"/>
    <path id="Path_26593" data-name="Path 26593" d="M68.246,265.844H50L44.39,248.5l-5.648,17.344L20.5,265.811l14.752,10.732L29.6,293.887l14.752-10.732,14.752,10.732-5.615-17.344Z" fill="#00b67a"/>
    <path id="Path_26594" data-name="Path 26594" d="M102.767,336.821,101.5,332.9l-9.1,6.612Z" transform="translate(-48.01 -56.357)" fill="#005128"/>
  </g>
</svg>
